<svg width="193" height="121" viewBox="0 0 193 121" fill="none" xmlns="http://www.w3.org/2000/svg">
<g clip-path="url(#clip0_8300_1334)">
<path d="M193 0H0V120.254H193V0Z" fill="#212322"/>
<g clip-path="url(#clip1_8300_1334)">
<path d="M53.265 51.4327L53.177 51.5058V68.4942L53.265 68.5688H60.7566L60.8446 68.4942V61.5274H71.5356L71.6221 61.4529V57.4305L71.5356 57.3559H60.8446V55.1211H72.5882L72.6761 55.0451V51.5058L72.5882 51.4327H53.265ZM74.8781 51.4685L74.7902 51.543V68.4942L74.8781 68.5688H82.328L82.416 68.4942V51.543L82.328 51.4685H74.8781ZM40.8043 51.2777L39.6683 52.4137C39.1823 52.9012 38.9214 53.5244 38.8737 54.1625L36.3705 56.6657C35.6161 54.9303 35.7577 52.8997 36.7954 51.2792C37.013 50.9378 37.2695 50.6142 37.5677 50.3161L37.8837 50.0015H26V61.8837L26.3176 61.5662C26.6127 61.2695 26.9363 61.013 27.2807 60.7909C28.196 60.202 29.262 59.8859 30.3787 59.8859C31.1808 59.8859 31.959 60.0514 32.6746 60.3645L30.1744 62.8647C29.511 62.9124 28.8953 63.1912 28.4197 63.6653L26 66.082V70H29.918L32.3362 67.5818C32.8028 67.1152 33.0622 66.5203 33.1249 65.9105L35.6549 63.382C36.3854 65.1055 36.2363 67.1152 35.2076 68.7193C34.9884 69.0608 34.735 69.3828 34.4383 69.6795L34.1178 69.9985H46.003V58.1148L45.6884 58.4309C45.6124 58.5069 45.5334 58.5799 45.4543 58.6515C45.2262 58.8572 44.9817 59.0406 44.7238 59.2046C43.8084 59.795 42.7439 60.1111 41.6288 60.1111C40.8446 60.1111 40.0842 59.953 39.382 59.6519L41.9076 57.1278C42.5427 57.0637 43.1301 56.7864 43.5878 56.3287L46.003 53.912V50H42.085L40.8058 51.2777H40.8043ZM41.8077 56.3272L41.0518 57.0831L38.7767 59.3567L35.3582 62.7753L33.0831 65.0503L32.4003 65.7346C31.8204 66.3146 30.8811 66.3146 30.3012 65.7346C29.7197 65.1562 29.7197 64.2154 30.3012 63.6355L31.0078 62.9288L33.271 60.6657L39.7085 54.2281C40.2885 53.6496 41.2307 53.6496 41.8092 54.2281C42.3891 54.8081 42.3891 55.7488 41.8092 56.3287L41.8077 56.3272ZM86.3817 51.4327L86.2922 51.5058V68.4942L86.3817 68.5688H105.353L105.441 68.4942V64.4704L105.353 64.3958H93.9627V61.5274H104.478L104.564 61.4529V57.4305L104.478 57.3559H93.9627V55.1211H105.353L105.441 55.0451V51.5058L105.353 51.4327H86.3817ZM149.521 51.4327H138.655C138.222 51.4327 137.741 51.4939 137.208 51.6191C134.316 52.4376 132.868 53.9538 132.868 56.1633V63.798C132.868 64.3258 132.956 64.8476 133.134 65.3634C134.279 67.4998 136.368 68.5673 139.4 68.5673H148.778C150.274 68.5673 151.531 68.3079 152.545 67.7861C154.355 66.7738 155.263 65.6064 155.263 64.284V55.6042C155.263 54.89 154.884 54.1208 154.124 53.2948C152.742 52.0529 151.211 51.4327 149.523 51.4327H149.521ZM147.461 62.8677C147.366 63.8859 146.987 64.3958 146.324 64.3958H141.679C141.035 64.1916 140.713 63.6444 140.713 62.7574V56.7581C140.713 55.6653 141.138 55.1196 141.984 55.1196H146.192C147.039 55.1196 147.461 55.6668 147.461 56.7581V62.8677ZM130.386 58.659V55.4551C130.386 54.3742 130.152 53.5542 129.685 52.9952C128.751 51.953 127.525 51.4312 126.006 51.4312H107.91L107.822 51.5043V68.4927L107.91 68.5673H115.401L115.489 68.4927V62.7559L115.577 62.6813L119.215 62.7186C121.821 66.4368 123.226 68.3884 123.421 68.5673H131.309L131.397 68.4927L127.147 62.495C129.308 61.8494 130.388 60.5703 130.388 58.6575L130.386 58.659ZM123.77 57.6899C123.58 58.1864 123.084 58.4353 122.282 58.4353H115.533V55.6772H122.413C123.318 55.789 123.77 56.038 123.77 56.4227V57.6899ZM165.469 54.9258C165.469 53.8703 164.766 53.5304 163.576 53.5304H161.851V58.1476H162.838V56.208H163.303L164.369 58.1476H165.538L164.357 56.129C164.97 56.0842 165.469 55.7771 165.469 54.9258ZM163.712 55.4253H162.838V54.3131H163.53C163.902 54.3131 164.415 54.3474 164.415 54.823C164.415 55.3328 164.154 55.4238 163.712 55.4238V55.4253ZM163.552 51.5565C161.272 51.5565 159.24 53.1323 159.24 55.8442C159.24 58.5561 161.271 60.1319 163.552 60.1319C165.833 60.1319 167.852 58.5546 167.852 55.8442C167.852 53.1338 165.821 51.5565 163.552 51.5565ZM163.552 59.2344C161.799 59.2464 160.385 57.8792 160.385 55.8442C160.385 53.8092 161.799 52.454 163.552 52.454C165.305 52.454 166.708 53.8092 166.708 55.8442C166.708 57.8792 165.259 59.2449 163.552 59.2344Z" fill="#C12033"/>
</g>
</g>
<defs>
<clipPath id="clip0_8300_1334">
<rect width="193" height="120.254" rx="12.7536" fill="white"/>
</clipPath>
<clipPath id="clip1_8300_1334">
<rect width="141.852" height="20" fill="white" transform="translate(26 50)"/>
</clipPath>
</defs>
</svg>
