<svg width="193" height="121" viewBox="0 0 193 121" fill="none" xmlns="http://www.w3.org/2000/svg">
<g clip-path="url(#clip0_8300_1330)">
<path d="M193 0H0V120.254H193V0Z" fill="#01528A"/>
<g clip-path="url(#clip1_8300_1330)">
<path fill-rule="evenodd" clip-rule="evenodd" d="M56.3699 70.3718H61.6925V62.5026H70.1055V58.3821H61.6925V54.2042H71.4207V49.9411H56.3699V70.3718ZM83.6663 49.512C77.2856 49.512 73.5942 54.1763 73.5942 60.1558C73.5942 66.5085 77.6574 70.7995 83.6663 70.7995C89.6751 70.7995 93.7383 66.2219 93.7383 60.1558C93.7383 54.0896 89.875 49.512 83.6663 49.512ZM83.6663 66.2219C80.6052 66.2219 78.9168 63.7326 78.9168 60.1558C78.9168 56.579 80.6332 54.0896 83.6383 54.0896C86.6434 54.0896 88.4172 56.6069 88.4172 60.1558C88.4172 63.7046 86.7008 66.2219 83.6677 66.2219H83.6663ZM112.079 60.0985C110.964 59.0683 108.817 58.2101 105.527 57.4945C102.895 56.9228 101.893 56.3218 101.893 55.3769C101.893 54.2615 102.923 53.6312 104.467 53.6312C106.385 53.6312 107.758 54.4041 107.758 55.9206V56.0926H113.051V55.8354C113.051 52.116 109.646 49.512 104.867 49.512C100.776 49.512 96.5687 51.4577 96.5687 55.7208C96.5687 57.2653 97.0845 58.4673 98.1132 59.4695C99.1713 60.4717 101.117 61.3578 103.922 61.9868C106.326 62.5305 108.415 63.1022 108.415 64.5908C108.415 65.9074 107.098 66.679 105.124 66.679C102.607 66.679 101.405 65.6768 101.29 63.5033H95.9677C95.9677 68.2249 99.5152 70.7995 104.838 70.7995C110.16 70.7995 113.737 68.4821 113.737 63.9604C113.737 62.3866 113.193 61.0992 112.078 60.0971L112.079 60.0985ZM122.065 61.9015H132.08V57.781H122.065V54.2042H133.023V49.9411H116.742V70.3718H133.31V65.7942H122.065V61.9029V61.9015ZM135.542 54.5187H141.636V70.3704H146.958V54.5187H153.053V49.9411H135.542V54.5187ZM47.0806 47.5077H30.2156C27.8967 47.5077 26 49.4044 26 51.7233V68.5883C26 70.9071 27.8967 72.8039 30.2156 72.8039H37.2993V69.5024H36.4914C36.4481 69.5024 36.4047 69.5024 36.36 69.5024C36.3572 69.5024 36.3558 69.5024 36.353 69.5024C34.3053 69.5024 32.5791 68.134 32.034 66.2625C32.034 66.2625 32.034 66.2625 32.034 66.2611C32.0312 66.2541 32.0298 66.2457 32.027 66.2373C32.0144 66.1954 32.0033 66.1534 31.9921 66.1115C31.1423 63.0393 29.5642 57.289 28.9688 55.1197C28.9059 54.8877 29.191 54.7242 29.3588 54.8947L34.2452 59.8273C34.4395 60.023 34.2997 60.357 34.0244 60.3557L33.0124 60.3515L34.3906 65.3847H34.392C34.645 66.2136 35.4137 66.816 36.3251 66.816H37.2979V56.8012C37.2979 56.7537 37.2587 56.7146 37.2112 56.7146H36.3209C36.1322 56.7146 36.0008 56.5273 36.0637 56.3497L38.4258 49.7706C38.4999 49.5652 38.7907 49.5652 38.8647 49.7706L41.2269 56.3484C41.2912 56.5259 41.1598 56.7132 40.9697 56.7132H40.0794C40.0318 56.7132 39.9927 56.7523 39.9927 56.7998V66.8244H40.9655C41.8769 66.8244 42.6456 66.2219 42.8986 65.3945H42.9L44.2782 60.3612L43.2662 60.3654C42.9908 60.3654 42.8511 60.0342 43.0454 59.8371L47.9318 54.9045C48.101 54.734 48.3861 54.8989 48.3218 55.1295C47.7264 57.2988 46.1483 63.0491 45.2985 66.1213C45.2873 66.1632 45.2761 66.2052 45.2636 66.2471C45.2608 66.2541 45.2594 66.2625 45.2566 66.2709C45.2566 66.2709 45.2566 66.2709 45.2566 66.2723C44.7129 68.1438 42.9853 69.5122 40.9376 69.5122C40.9348 69.5122 40.9334 69.5122 40.9306 69.5122C40.8859 69.5122 40.8425 69.5122 40.7992 69.5122H39.9913V72.8053H47.075C49.3939 72.8053 51.2906 70.9085 51.2906 68.5897V51.7233C51.2906 49.4044 49.3939 47.5077 47.075 47.5077H47.0806ZM165.067 54.0938C165.067 52.8345 164.229 52.4291 162.807 52.4291H160.75V57.939H161.928V55.6243H162.483L163.755 57.939H165.15L163.742 55.5293C164.473 55.4748 165.069 55.11 165.069 54.0938H165.067ZM162.969 54.6892H161.927V53.3628H162.753C163.199 53.3628 163.808 53.4033 163.808 53.9722C163.808 54.5802 163.496 54.6892 162.968 54.6892H162.969ZM162.779 50.0739C160.059 50.0739 157.636 51.9553 157.636 55.191C157.636 58.4268 160.059 60.3081 162.779 60.3081C165.499 60.3081 167.909 58.4268 167.909 55.191C167.909 51.9553 165.485 50.0739 162.779 50.0739ZM162.779 59.2347C160.687 59.2486 159.001 57.6175 159.001 55.1896C159.001 52.7618 160.688 51.1446 162.779 51.1446C164.87 51.1446 166.545 52.7618 166.545 55.1896C166.545 57.6175 164.816 59.2472 162.779 59.2347Z" fill="white"/>
</g>
</g>
<defs>
<clipPath id="clip0_8300_1330">
<rect width="193" height="120.254" rx="12.7536" fill="white"/>
</clipPath>
<clipPath id="clip1_8300_1330">
<rect width="141.91" height="25.2976" fill="white" transform="translate(26 47.5077)"/>
</clipPath>
</defs>
</svg>
