<svg width="193" height="121" viewBox="0 0 193 121" fill="none" xmlns="http://www.w3.org/2000/svg">
<g clip-path="url(#clip0_8300_1338)">
<path d="M192.5 -0.373047H-0.5V120.627H192.5V-0.373047Z" fill="#C12033"/>
<g clip-path="url(#clip1_8300_1338)">
<path d="M75.3385 62.4569H83.2608V58.4594H75.3385V56.3642H84.0659V52.0648H70.1655V68.8529H84.3217V64.5521H75.3385V62.4569ZM62.3312 57.8975H57.4894V52.0648H52.3108V68.8529H57.4894V62.1983H62.3312V68.8529H67.5084V52.0648H62.3312V57.8989V57.8975ZM40.848 47.8394C40.7348 47.7276 40.5084 47.627 40.349 47.627H30.3077C30.1442 47.627 29.9178 47.7276 29.8018 47.8394L22.7055 54.9357C22.5923 55.0517 22.5 55.2781 22.5 55.4417V65.4788C22.5 65.6395 22.5923 65.8674 22.7055 65.9848L29.8018 73.0755C29.9178 73.1915 30.1442 73.2907 30.3077 73.2907H40.3477C40.5084 73.2907 40.7348 73.1915 40.8466 73.0755L47.9457 65.9848C48.0603 65.8674 48.1568 65.6395 48.1568 65.4788V55.4417C48.1568 55.2781 48.0603 55.0517 47.9457 54.9357L40.848 47.8394ZM37.1706 59.2323C37.2042 59.9298 38.683 69.8299 38.683 69.8299C38.683 69.8299 38.8241 70.3876 38.2301 70.4282C37.6416 70.4575 31.9766 70.3876 31.9766 70.3876C31.9766 70.3876 31.5294 70.3205 31.6649 69.5853C31.8061 68.8613 33.4415 59.2351 33.4415 59.2351C33.4415 59.2351 33.5826 58.7865 33.2919 58.6816C31.9207 57.9534 30.9828 56.4802 30.9828 54.8225C30.9828 52.4254 32.9257 50.4811 35.3242 50.4811C37.7227 50.4811 39.6656 52.4254 39.6656 54.8225C39.6656 56.5123 38.7053 57.9744 37.2964 58.69C37.1189 58.7865 37.1259 59.0143 37.1692 59.2309L37.1706 59.2323ZM99.5347 61.0717C101.257 60.433 102.056 58.5992 102.056 56.8646C102.056 53.6889 99.5151 52.0662 96.5743 52.0662H86.7216V68.8543H91.896V62.9964H94.6454C96.6903 62.9964 96.8314 64.6681 96.9726 66.2671C97.0467 67.1407 97.1361 68.0115 97.4003 68.8529H102.578C102.106 68.0786 102.081 66.0798 102.01 65.258C101.821 63.1614 100.949 61.6099 99.5361 61.0717H99.5347ZM94.5979 59.3987H91.8946V56.0609H94.3155C96.2933 56.0609 96.879 56.6745 96.879 57.7298C96.879 59.2365 95.5623 59.3987 94.5979 59.3987ZM131.523 62.4569H139.448V58.4594H131.523V56.3642H140.248V52.0648H126.35V68.8529H140.511V64.5521H131.525V62.4569H131.523ZM113.933 61.9383H113.884L111.484 52.0648H104.128V68.8529H109.015V58.0848H109.062L111.981 68.8529H115.835L118.753 58.0848H118.8V68.8529H123.694V52.0648H116.328L113.933 61.9383ZM158.664 52.0648H152.925L150.43 56.627L147.891 52.0648H141.824L147.351 59.9172L141.282 68.8515H147.21L150.17 63.8448L153.041 68.8515H159.274L153.275 59.9675L158.663 52.0648H158.664ZM165.863 52.1738C163.628 52.1738 161.636 53.7197 161.636 56.3782C161.636 59.0366 163.628 60.5825 165.863 60.5825C168.098 60.5825 170.078 59.0366 170.078 56.3782C170.078 53.7197 168.088 52.1738 165.863 52.1738ZM165.863 59.702C164.143 59.7131 162.758 58.3727 162.758 56.3782C162.758 54.3836 164.145 53.0544 165.863 53.0544C167.58 53.0544 168.957 54.3836 168.957 56.3782C168.957 58.3727 167.536 59.7131 165.863 59.702ZM167.743 55.4766C167.743 54.4423 167.054 54.1082 165.885 54.1082H164.194V58.6355H165.161V56.7332H165.617L166.662 58.6355H167.808L166.651 56.6563C167.252 56.6116 167.741 56.3111 167.741 55.4766H167.743ZM166.019 55.9658H165.162V54.8756H165.842C166.208 54.8756 166.71 54.9091 166.71 55.376C166.71 55.8764 166.454 55.9658 166.019 55.9658Z" fill="white"/>
</g>
</g>
<defs>
<clipPath id="clip0_8300_1338">
<rect width="193" height="120.254" rx="12.7536" fill="white"/>
</clipPath>
<clipPath id="clip1_8300_1338">
<rect width="147.578" height="25.6624" fill="white" transform="translate(22.5 47.627)"/>
</clipPath>
</defs>
</svg>
