<svg width="193" height="121" viewBox="0 0 193 121" fill="none" xmlns="http://www.w3.org/2000/svg">
<g clip-path="url(#clip0_8300_1322)">
<path d="M193 0H0V120.254H193V0Z" fill="#FFC52F"/>
<g clip-path="url(#clip1_8300_1322)">
<path d="M78.0083 61.362H86.575V56.6334H78.0083V53.7276H88.1279V48.9934H71.2111V69.2857H88.5319V64.5502H78.0083V61.362ZM39.2394 48.9934H29.5V69.2857H36.1253V62.9722H39.4672C45.2748 62.9722 47.8564 60.2116 47.8564 55.8465C47.8564 51.4814 45.047 48.9934 39.2394 48.9934ZM38.8704 58.2394H36.1253V53.7276H38.0024C39.4127 53.7276 41.5373 53.9847 41.5373 55.8731C41.5373 57.6202 40.4191 58.2394 38.869 58.2394H38.8704ZM68.2382 54.4152C68.2382 48.4637 60.5059 49.0046 60.5059 49.0046H49.9237V69.2857H56.486V62.3166H59.9077C62.4809 62.216 62.1427 66.4357 62.1427 66.4357V69.2871H68.2368V64.8144C68.2368 60.8616 64.9325 59.7238 64.9325 59.7238C68.5191 58.8069 68.2368 54.4166 68.2368 54.4166L68.2382 54.4152ZM62.1538 56.3176C62.0588 56.8711 61.578 57.7726 59.371 57.7726H56.4874V53.7094H59.6477C59.6477 53.7094 62.1441 53.6032 62.1441 55.8773C62.1441 55.8773 62.1874 56.0604 62.1524 56.3176H62.1538ZM140.431 48.9934H133.814V69.2857H149.526V64.5502H140.431V48.9934ZM90.4076 54.3188H96.3675V69.2857H102.983V54.3188H108.933V48.9934H90.4062V54.3188H90.4076ZM123.992 61.1355C123.992 63.337 123.296 64.8605 120.909 64.8605C118.183 64.8605 117.786 63.1385 117.786 61.1355V48.9934H111.171V60.4353C111.171 67.4267 114.647 69.8197 120.91 69.8197C127.615 69.8197 130.623 66.9767 130.623 60.4632V48.9934H123.994V61.1355H123.992ZM157.683 49.0955C154.977 49.0955 152.568 50.967 152.568 54.1846C152.568 57.4022 154.977 59.2738 157.683 59.2738C160.389 59.2738 162.786 57.4022 162.786 54.1846C162.786 50.967 160.377 49.0955 157.683 49.0955ZM157.683 58.2087C155.602 58.2227 153.925 56.5999 153.925 54.186C153.925 51.7721 155.602 50.1633 157.683 50.1633C159.765 50.1633 161.429 51.7721 161.429 54.186C161.429 56.5999 159.709 58.2227 157.683 58.2087ZM159.959 53.0944C159.959 51.842 159.124 51.4381 157.711 51.4381H155.664V56.9186H156.835V54.6165H157.387L158.652 56.9186H160.04L158.639 54.5215C159.366 54.4684 159.959 54.1035 159.959 53.0944ZM157.873 53.687H156.836V52.3676H157.658C158.101 52.3676 158.708 52.4081 158.708 52.9742C158.708 53.5794 158.398 53.687 157.873 53.687Z" fill="#212322"/>
</g>
</g>
<defs>
<clipPath id="clip0_8300_1322">
<rect width="193" height="120.254" rx="12.7536" fill="white"/>
</clipPath>
<clipPath id="clip1_8300_1322">
<rect width="133.286" height="20.8276" fill="white" transform="translate(29.5 48.9923)"/>
</clipPath>
</defs>
</svg>
