<svg width="193" height="121" viewBox="0 0 193 121" fill="none" xmlns="http://www.w3.org/2000/svg">
<g clip-path="url(#clip0_8300_1310)">
<path d="M193 0H0V120.254H193V0Z" fill="#F26829"/>
<g clip-path="url(#clip1_8300_1310)">
<path fill-rule="evenodd" clip-rule="evenodd" d="M158.892 55.0126H159.889C160.393 55.0126 160.691 54.9092 160.691 54.3278C160.691 53.784 160.108 53.7463 159.682 53.7463H158.892V55.0126ZM158.892 55.9044V58.1156H157.767V52.8531H159.732C161.09 52.8531 161.89 53.2403 161.89 54.4438C161.89 55.4138 161.322 55.7632 160.624 55.8149L161.969 58.1156H160.637L159.422 55.9044H158.892Z" fill="#333F48"/>
<path fill-rule="evenodd" clip-rule="evenodd" d="M163.307 55.4906C163.307 53.1718 161.655 51.6273 159.711 51.6273C157.767 51.6273 156.102 53.1718 156.102 55.4906C156.102 57.8094 157.714 59.3665 159.711 59.3539C161.655 59.3665 163.307 57.8094 163.307 55.4906ZM164.611 55.4906C164.611 58.581 162.297 60.3785 159.711 60.3785C157.125 60.3785 154.798 58.581 154.798 55.4906C154.798 52.4002 157.111 50.6041 159.711 50.6041C162.311 50.6041 164.611 52.4002 164.611 55.492" fill="#333F48"/>
<path d="M29 50.4769H48.1168V54.7903H41.1086V69.9921H36.0082V54.7903H29V50.4769Z" fill="#333F48"/>
<path d="M112.834 50.4769H117.867H129.29V54.5709H117.867V58.219H126.672V62.2486H117.867V65.8967H129.29V69.9921H117.867H112.834V65.8967V62.2486V58.219V54.5709V50.4769Z" fill="#333F48"/>
<path d="M89.2213 64.1677C89.2018 67.0485 87.1485 69.4442 84.4131 69.9459C83.0699 70.192 81.6484 70.3233 80.1794 70.3233C78.7104 70.3233 77.2889 70.192 75.9457 69.9459C73.2089 69.4456 71.1472 67.0485 71.1375 64.1677V50.4769H76.098V53.6274C76.098 53.6274 76.0169 61.0522 76.098 63.2438C76.1693 65.1531 77.6509 66.2168 79.6021 66.2993C79.986 66.316 80.3704 66.316 80.7553 66.2993C82.6743 66.2154 84.1895 65.1517 84.2594 63.2438C84.3404 61.0522 84.2594 53.6274 84.2594 53.6274V50.4769H89.2199V64.1677H89.2213Z" fill="#333F48"/>
<path d="M64.8867 62.988C69.3902 61.4631 68.9206 56.7723 68.9206 56.7723C68.9206 50.5105 62.635 50.4769 62.635 50.4769H50.4104V69.9921H55.5107V54.5513H61.1632C62.4421 54.5513 63.4806 55.5884 63.4806 56.8688V57.0141C63.4806 58.2931 62.4435 59.3316 61.1632 59.3316H56.5772C56.4276 59.3316 56.3438 59.5035 56.436 59.6223L64.4003 69.9949H70.4637L64.8881 62.9922L64.8867 62.988Z" fill="#333F48"/>
<path d="M146.309 62.988C150.813 61.4631 150.343 56.7723 150.343 56.7723C150.343 50.5105 144.057 50.4769 144.057 50.4769H131.833V69.9921H136.933V54.5513H142.586C143.864 54.5513 144.903 55.5884 144.903 56.8688V57.0141C144.903 58.2931 143.866 59.3316 142.586 59.3316H138C137.85 59.3316 137.766 59.5035 137.858 59.6223L145.823 69.9949H151.886L146.31 62.9922L146.309 62.988Z" fill="#333F48"/>
<path d="M110.803 56.7723C110.803 50.5105 104.518 50.4769 104.518 50.4769H92.2932V69.9921H97.3935V63.364H104.354C105.855 63.364 106.771 62.9894 106.771 62.9894C111.274 61.4645 110.805 56.7737 110.805 56.7737L110.803 56.7723ZM105.362 57.0127C105.362 58.2917 104.325 59.3302 103.045 59.3302H102.641H98.091H97.3935V54.5513H99.7082C99.7082 54.5513 99.7096 54.5513 99.711 54.5513H103.046C104.325 54.5513 105.363 55.5884 105.363 56.8688V57.0141L105.362 57.0127Z" fill="#333F48"/>
</g>
</g>
<defs>
<clipPath id="clip0_8300_1310">
<rect width="193" height="120.254" rx="12.7536" fill="white"/>
</clipPath>
<clipPath id="clip1_8300_1310">
<rect width="135.615" height="19.8464" fill="white" transform="translate(29 50.4769)"/>
</clipPath>
</defs>
</svg>
