<svg width="193" height="121" viewBox="0 0 193 121" fill="none" xmlns="http://www.w3.org/2000/svg">
<g clip-path="url(#clip0_8300_1326)">
<path d="M193 0H0V120.254H193V0Z" fill="#2B338C"/>
<g clip-path="url(#clip1_8300_1326)">
<path d="M27.9964 54.5568C29.0727 52.702 30.6703 50.8598 32.6998 49.272C33.2687 48.8275 33.9047 48.369 34.5015 48.0224C34.6343 47.9455 34.8383 47.8351 34.7447 47.6352C34.6664 47.4661 34.412 47.4969 34.2261 47.5612C31.8178 48.3858 29.3005 49.8311 26.8811 51.7236C20.0196 57.0895 16.7056 64.3186 19.4815 67.8674C21.8003 70.832 27.6344 70.2799 33.4923 66.8932C32.4161 68.748 30.8185 70.5916 28.789 72.178C28.2201 72.6225 27.5841 73.081 26.9873 73.429C26.8545 73.5059 26.6504 73.6149 26.7441 73.8162C26.8223 73.9853 27.0767 73.9531 27.2626 73.8902C29.6709 73.0656 32.1882 71.6203 34.6077 69.7278C34.932 69.4734 35.2409 69.212 35.5498 68.9507L35.5428 68.9437C41.7543 63.6742 44.6532 56.9637 42.0087 53.5826C39.6899 50.618 33.8557 51.1701 27.9978 54.5568H27.9964ZM33.6335 64.5031C31.8849 65.8701 29.1454 65.2872 27.5128 63.2004C25.8803 61.1136 25.9739 58.3125 27.7225 56.9455C29.4711 55.5785 32.2106 56.1614 33.8432 58.2482C35.4757 60.335 35.3821 63.1361 33.6335 64.5031ZM97.0473 55.0097H101.78V69.4902H105.469V55.0097H110.201V51.9416H97.0473V55.0097ZM89.2004 51.943H85.5369V66.246C85.5369 68.6096 87.6754 69.4902 89.0243 69.4902H96.3386V66.397H89.2018V51.943H89.2004ZM73.6939 51.6551C68.5293 51.6551 65.4459 55.046 65.4459 60.7278C65.4459 66.4096 68.5279 69.7767 73.6939 69.7767C78.8599 69.7767 81.9154 66.4795 81.9154 60.7278C81.9154 54.9761 78.8418 51.6551 73.6939 51.6551ZM73.6939 66.7087C70.0724 66.7087 69.3134 63.4562 69.3134 60.7278C69.3134 57.9994 70.0724 54.7707 73.6939 54.7707C77.3155 54.7707 78.073 58.0092 78.073 60.7278C78.073 63.4464 77.3141 66.7087 73.6939 66.7087ZM55.6744 64.8064L51.477 51.943H47.4347L53.7063 69.4902H57.497L63.7672 51.943H59.8256L55.6744 64.8064ZM162.186 51.943H158.037L151.815 60.6118L158.648 69.4902H162.953L156.04 60.3672L162.184 51.943H162.186ZM120.559 51.5139C115.148 51.5139 111.789 55.0796 111.789 60.82C111.789 66.5605 115.193 69.8913 121.376 69.8913C123.319 69.8913 125.041 69.6467 126.506 69.1631V65.8994L126.321 65.9693C124.851 66.5186 123.259 66.7982 121.589 66.7982C117.798 66.7982 116.03 65.2229 115.873 61.695H128.246L128.261 61.5455C128.336 60.8871 128.37 60.2833 128.37 59.6446C128.37 54.705 125.304 51.5139 120.56 51.5139H120.559ZM115.926 59.0002C116.333 55.8693 117.848 54.4086 120.553 54.4086C123.258 54.4086 124.668 56.6213 124.731 59.0002H115.926ZM147.507 69.4902H151.194V51.943H147.507V69.4902ZM130.854 60.8228C130.854 66.3467 134.312 69.7753 139.885 69.7753C141.429 69.7753 142.701 69.5908 144.056 69.1631V65.9036L143.923 65.9539C142.563 66.4613 141.525 66.6598 140.215 66.6598C136.652 66.6598 134.769 64.6414 134.769 60.8228C134.769 57.0042 136.641 54.7469 140.037 54.7469C141.694 54.7469 142.453 54.9482 143.757 55.3353L144.056 55.4388V52.2226C142.812 51.876 141.555 51.6537 139.833 51.6537C134.379 51.6537 130.854 55.2529 130.854 60.8214V60.8228ZM169.957 52.1038C167.627 52.1038 165.553 53.714 165.553 56.4843C165.553 59.2546 167.627 60.8648 169.957 60.8648C172.287 60.8648 174.35 59.2532 174.35 56.4843C174.35 53.7154 172.276 52.1038 169.957 52.1038ZM169.957 59.9479C168.167 59.959 166.721 58.5627 166.721 56.4843C166.721 54.4059 168.165 53.0207 169.957 53.0207C171.749 53.0207 173.182 54.4059 173.182 56.4843C173.182 58.5627 171.702 59.959 169.957 59.9479ZM171.915 55.5464C171.915 54.4687 171.197 54.1207 169.981 54.1207H168.218V58.8381H169.226V56.8561H169.701L170.79 58.8381H171.984L170.779 56.775C171.405 56.7289 171.915 56.4158 171.915 55.5464ZM170.119 56.0566H169.226V54.9202H169.933C170.315 54.9202 170.838 54.9552 170.838 55.4416C170.838 55.9629 170.571 56.0552 170.119 56.0552V56.0566Z" fill="white"/>
</g>
</g>
<defs>
<clipPath id="clip0_8300_1326">
<rect width="193" height="120.254" rx="12.7536" fill="white"/>
</clipPath>
<clipPath id="clip1_8300_1326">
<rect width="155.849" height="26.4339" fill="white" transform="translate(18.5 47.5077)"/>
</clipPath>
</defs>
</svg>
